<svg xmlns="http://www.w3.org/2000/svg" viewBox="0 0 32 32" shape-rendering="crispEdges">
  <rect width="32" height="32" rx="6" fill="#0071e3"/>
  <!-- Pixel art "S" - clean 6x7 grid scaled to 32px -->
  <rect x="8" y="4" width="4" height="4" fill="#fff"/>
  <rect x="12" y="4" width="4" height="4" fill="#fff"/>
  <rect x="16" y="4" width="4" height="4" fill="#fff"/>
  <rect x="20" y="4" width="4" height="4" fill="#fff"/>
  <rect x="4" y="8" width="4" height="4" fill="#fff"/>
  <rect x="4" y="12" width="4" height="4" fill="#fff"/>
  <rect x="8" y="12" width="4" height="4" fill="#fff"/>
  <rect x="12" y="12" width="4" height="4" fill="#fff"/>
  <rect x="16" y="12" width="4" height="4" fill="#fff"/>
  <rect x="24" y="8" width="4" height="4" fill="#fff"/>
  <rect x="24" y="12" width="4" height="4" fill="#fff"/>
  <rect x="20" y="16" width="4" height="4" fill="#fff"/>
  <rect x="16" y="16" width="4" height="4" fill="#fff"/>
  <rect x="12" y="16" width="4" height="4" fill="#fff"/>
  <rect x="8" y="16" width="4" height="4" fill="#fff"/>
  <rect x="4" y="20" width="4" height="4" fill="#fff"/>
  <rect x="24" y="16" width="4" height="4" fill="#fff"/>
  <rect x="4" y="24" width="4" height="4" fill="#fff"/>
  <rect x="24" y="20" width="4" height="4" fill="#fff"/>
  <rect x="8" y="24" width="4" height="4" fill="#fff"/>
  <rect x="12" y="24" width="4" height="4" fill="#fff"/>
  <rect x="16" y="24" width="4" height="4" fill="#fff"/>
  <rect x="20" y="24" width="4" height="4" fill="#fff"/>
</svg>
